<svg width="30" height="30" viewBox="0 0 30 30" fill="none" xmlns="http://www.w3.org/2000/svg">
<rect width="30" height="30" rx="5" fill="#FFE7AA"/>
<path fill-rule="evenodd" clip-rule="evenodd" d="M20 9.58203H10C9.30964 9.58203 8.75 10.1417 8.75 10.832V19.1654C8.75 19.8557 9.30964 20.4154 10 20.4154H20C20.6904 20.4154 21.25 19.8557 21.25 19.1654V10.832C21.25 10.1417 20.6904 9.58203 20 9.58203ZM10 8.33203C8.61929 8.33203 7.5 9.45132 7.5 10.832V19.1654C7.5 20.5461 8.61929 21.6654 10 21.6654H20C21.3807 21.6654 22.5 20.5461 22.5 19.1654V10.832C22.5 9.45132 21.3807 8.33203 20 8.33203H10Z" fill="#131F60"/>
<path fill-rule="evenodd" clip-rule="evenodd" d="M15.0007 15.4154C15.9211 15.4154 16.6673 14.6692 16.6673 13.7487C16.6673 12.8282 15.9211 12.082 15.0007 12.082C14.0802 12.082 13.334 12.8282 13.334 13.7487C13.334 14.6692 14.0802 15.4154 15.0007 15.4154ZM15.0007 16.6654C16.6115 16.6654 17.9173 15.3595 17.9173 13.7487C17.9173 12.1379 16.6115 10.832 15.0007 10.832C13.3898 10.832 12.084 12.1379 12.084 13.7487C12.084 15.3595 13.3898 16.6654 15.0007 16.6654Z" fill="#131F60"/>
<path fill-rule="evenodd" clip-rule="evenodd" d="M14.9993 18.125C13.5036 18.125 12.291 19.3376 12.291 20.8333H11.041C11.041 18.6472 12.8132 16.875 14.9993 16.875C17.1855 16.875 18.9577 18.6472 18.9577 20.8333H17.7077C17.7077 19.3376 16.4951 18.125 14.9993 18.125Z" fill="#131F60"/>
</svg>
