<svg width="30" height="30" viewBox="0 0 30 30" fill="none" xmlns="http://www.w3.org/2000/svg">
<rect width="30" height="30" rx="5" fill="#AAFFD1"/>
<path fill-rule="evenodd" clip-rule="evenodd" d="M20.0007 10.5352H10.0007C9.77053 10.5352 9.58398 10.7217 9.58398 10.9518V19.9997C9.58398 20.2298 9.77053 20.4163 10.0007 20.4163H20.0007C20.2308 20.4163 20.4173 20.2298 20.4173 19.9997V10.9518C20.4173 10.7217 20.2308 10.5352 20.0007 10.5352ZM10.0007 9.28516C9.08018 9.28516 8.33398 10.0313 8.33398 10.9518V19.9997C8.33398 20.9201 9.08018 21.6663 10.0007 21.6663H20.0007C20.9211 21.6663 21.6673 20.9201 21.6673 19.9997V10.9518C21.6673 10.0313 20.9211 9.28516 20.0007 9.28516H10.0007Z" fill="#131F60"/>
<path fill-rule="evenodd" clip-rule="evenodd" d="M8.66211 13.4219H21.3407V14.6719H8.66211V13.4219Z" fill="#131F60"/>
<path fill-rule="evenodd" clip-rule="evenodd" d="M17.3809 7.70703C17.726 7.70703 18.0059 7.98685 18.0059 8.33203L18.0059 11.1892C18.0059 11.5344 17.726 11.8142 17.3809 11.8142C17.0357 11.8142 16.7559 11.5344 16.7559 11.1892L16.7559 8.33203C16.7559 7.98685 17.0357 7.70703 17.3809 7.70703Z" fill="#131F60"/>
<path fill-rule="evenodd" clip-rule="evenodd" d="M12.6191 7.70703C12.9643 7.70703 13.2441 7.98685 13.2441 8.33203L13.2441 11.1892C13.2441 11.5344 12.9643 11.8142 12.6191 11.8142C12.274 11.8142 11.9941 11.5344 11.9941 11.1892L11.9941 8.33203C11.9941 7.98685 12.274 7.70703 12.6191 7.70703Z" fill="#131F60"/>
</svg>
