<svg width="30" height="30" viewBox="0 0 30 30" fill="none" xmlns="http://www.w3.org/2000/svg">
<rect width="30" height="30" rx="5" fill="#DAFFAA"/>
<path fill-rule="evenodd" clip-rule="evenodd" d="M20 10.418H10C9.30964 10.418 8.75 10.9776 8.75 11.668V18.3346C8.75 19.025 9.30964 19.5846 10 19.5846H20C20.6904 19.5846 21.25 19.025 21.25 18.3346V11.668C21.25 10.9776 20.6904 10.418 20 10.418ZM10 9.16797C8.61929 9.16797 7.5 10.2873 7.5 11.668V18.3346C7.5 19.7153 8.61929 20.8346 10 20.8346H20C21.3807 20.8346 22.5 19.7153 22.5 18.3346V11.668C22.5 10.2873 21.3807 9.16797 20 9.16797H10Z" fill="#131F60"/>
<path fill-rule="evenodd" clip-rule="evenodd" d="M8.60475 10.2169C8.83012 9.95549 9.22477 9.92625 9.48621 10.1516L14.9992 14.904L20.5122 10.1516C20.7736 9.92625 21.1683 9.95549 21.3936 10.2169C21.619 10.4784 21.5898 10.873 21.3283 11.0984L15.4073 16.2026C15.1728 16.4047 14.8256 16.4047 14.5911 16.2026L8.67006 11.0984C8.40861 10.873 8.37937 10.4784 8.60475 10.2169Z" fill="#131F60"/>
</svg>
