<svg width="30" height="30" viewBox="0 0 30 30" fill="none" xmlns="http://www.w3.org/2000/svg">
<rect width="30" height="30" rx="5" fill="#DBD6FF"/>
<path fill-rule="evenodd" clip-rule="evenodd" d="M14.779 8.69982C15.0665 8.55606 15.4043 8.5531 15.6942 8.69179L22.817 12.0983C23.6067 12.476 23.6067 13.6001 22.817 13.9778L15.688 17.3873C15.4069 17.5218 15.0804 17.5233 14.7981 17.3916L9.69866 15.0118C9.38587 14.8659 9.25063 14.494 9.3966 14.1812C9.54257 13.8684 9.91447 13.7331 10.2273 13.8791L15.2375 16.2172L21.8847 13.0381L15.2468 9.86342L8.125 13.4243V17.6121C8.125 17.9573 7.84518 18.2371 7.5 18.2371C7.15482 18.2371 6.875 17.9573 6.875 17.6121V13.2956C6.875 12.901 7.09792 12.5403 7.45082 12.3639L14.779 8.69982Z" fill="#131F60"/>
<path fill-rule="evenodd" clip-rule="evenodd" d="M11.291 14.7969V17.8339C11.291 18.2262 11.5777 18.7061 12.3139 19.1234C13.0315 19.5302 14.0648 19.8015 15.2401 19.8015C16.4154 19.8015 17.4487 19.5302 18.1663 19.1234C18.9025 18.7061 19.1892 18.2262 19.1892 17.8339V14.7969H20.4392V17.8339C20.4392 18.8735 19.7019 19.6899 18.7826 20.2109C17.8447 20.7425 16.591 21.0515 15.2401 21.0515C13.8892 21.0515 12.6354 20.7425 11.6975 20.2109C10.7783 19.6899 10.041 18.8735 10.041 17.8339V14.7969H11.291Z" fill="#131F60"/>
</svg>
