<svg width="30" height="30" viewBox="0 0 30 30" fill="none" xmlns="http://www.w3.org/2000/svg">
<rect width="30" height="30" rx="5" fill="#FFCECE"/>
<path fill-rule="evenodd" clip-rule="evenodd" d="M9.80749 14.2528C10.0411 13.9987 10.4365 13.9821 10.6906 14.2157L15.0695 18.2418L19.4484 14.2157C19.7025 13.9821 20.0979 13.9987 20.3315 14.2528C20.5651 14.5069 20.5485 14.9022 20.2944 15.1359L15.0695 19.9398L9.84457 15.1359C9.59047 14.9022 9.57387 14.5069 9.80749 14.2528Z" fill="#131F60"/>
<path fill-rule="evenodd" clip-rule="evenodd" d="M15.0664 7.70703C15.4116 7.70703 15.6914 7.98685 15.6914 8.33203L15.6914 18.9987C15.6914 19.3439 15.4116 19.6237 15.0664 19.6237C14.7212 19.6237 14.4414 19.3439 14.4414 18.9987L14.4414 8.33203C14.4414 7.98685 14.7212 7.70703 15.0664 7.70703Z" fill="#131F60"/>
<path fill-rule="evenodd" clip-rule="evenodd" d="M8.44336 21.6641C8.44336 21.3189 8.72318 21.0391 9.06836 21.0391H20.8331C21.1782 21.0391 21.4581 21.3189 21.4581 21.6641C21.4581 22.0092 21.1782 22.2891 20.8331 22.2891H9.06836C8.72318 22.2891 8.44336 22.0092 8.44336 21.6641Z" fill="#131F60"/>
</svg>
