<svg width="30" height="30" viewBox="0 0 30 30" fill="none" xmlns="http://www.w3.org/2000/svg">
<rect width="30" height="30" rx="5" fill="#FFCFEC"/>
<path fill-rule="evenodd" clip-rule="evenodd" d="M9.99935 13.293C10.4596 13.293 10.8327 13.6661 10.8327 14.1263V20.0001C10.8327 20.4604 10.4596 20.8335 9.99935 20.8335C9.53911 20.8335 9.16602 20.4604 9.16602 20.0001V14.1263C9.16602 13.6661 9.53911 13.293 9.99935 13.293Z" fill="#131F60"/>
<path fill-rule="evenodd" clip-rule="evenodd" d="M14.9993 9.16797C15.4596 9.16797 15.8327 9.54106 15.8327 10.0013L15.8327 20.0008C15.8327 20.461 15.4596 20.8341 14.9993 20.8341C14.5391 20.8341 14.166 20.461 14.166 20.0008L14.166 10.0013C14.166 9.54106 14.5391 9.16797 14.9993 9.16797Z" fill="#131F60"/>
<path fill-rule="evenodd" clip-rule="evenodd" d="M19.9993 15.8125C20.4596 15.8125 20.8327 16.1856 20.8327 16.6458L20.8327 20.0023C20.8327 20.4625 20.4596 20.8356 19.9993 20.8356C19.5391 20.8356 19.166 20.4625 19.166 20.0023L19.166 16.6458C19.166 16.1856 19.5391 15.8125 19.9993 15.8125Z" fill="#131F60"/>
</svg>
