<svg width="200" height="200" viewBox="0 0 200 200" fill="none" xmlns="http://www.w3.org/2000/svg">
<path d="M100.527 17C66.0839 17 56.0107 17.0355 54.0526 17.198C46.9843 17.7857 42.586 18.8989 37.7943 21.2853C34.1015 23.1195 31.1892 25.2456 28.3149 28.226C23.0803 33.6613 19.9079 40.3482 18.7594 48.2968C18.2011 52.1556 18.0386 52.9426 18.0056 72.6529C17.993 79.223 18.0056 87.8697 18.0056 99.4676C18.0056 133.892 18.0437 143.958 18.2087 145.913C18.7797 152.793 19.8584 157.121 22.1426 161.856C26.5079 170.919 34.8452 177.722 44.6672 180.261C48.0681 181.137 51.8243 181.619 56.6465 181.848C58.6895 181.937 79.5137 182 100.351 182C121.187 182 142.024 181.975 144.017 181.873C149.6 181.61 152.842 181.175 156.427 180.248C166.313 177.697 174.498 170.995 178.952 161.805C181.192 157.184 182.327 152.691 182.841 146.17C182.953 144.749 183 122.082 183 99.4461C183 76.8061 182.949 54.1815 182.838 52.7598C182.317 46.1339 181.182 41.6785 178.869 36.9692C176.972 33.1142 174.866 30.2354 171.807 27.2918C166.35 22.0774 159.675 18.904 151.721 17.7565C147.867 17.1993 147.099 17.0343 127.379 17H100.527Z" fill="url(#paint0_radial_2295_17118)"/>
<path d="M100.527 17C66.0839 17 56.0107 17.0355 54.0526 17.198C46.9843 17.7857 42.586 18.8989 37.7943 21.2853C34.1015 23.1195 31.1892 25.2456 28.3149 28.226C23.0803 33.6613 19.9079 40.3482 18.7594 48.2968C18.2011 52.1556 18.0386 52.9426 18.0056 72.6529C17.993 79.223 18.0056 87.8697 18.0056 99.4676C18.0056 133.892 18.0437 143.958 18.2087 145.913C18.7797 152.793 19.8584 157.121 22.1426 161.856C26.5079 170.919 34.8452 177.722 44.6672 180.261C48.0681 181.137 51.8243 181.619 56.6465 181.848C58.6895 181.937 79.5137 182 100.351 182C121.187 182 142.024 181.975 144.017 181.873C149.6 181.61 152.842 181.175 156.427 180.248C166.313 177.697 174.498 170.995 178.952 161.805C181.192 157.184 182.327 152.691 182.841 146.17C182.953 144.749 183 122.082 183 99.4461C183 76.8061 182.949 54.1815 182.838 52.7598C182.317 46.1339 181.182 41.6785 178.869 36.9692C176.972 33.1142 174.866 30.2354 171.807 27.2918C166.35 22.0774 159.675 18.904 151.721 17.7565C147.867 17.1993 147.099 17.0343 127.379 17H100.527Z" fill="url(#paint1_radial_2295_17118)"/>
<path d="M100.508 38.5793C83.9659 38.5793 81.8898 38.6517 75.3926 38.9475C68.9081 39.2445 64.4818 40.2714 60.6088 41.7781C56.6026 43.3343 53.2043 45.416 49.8186 48.8039C46.4304 52.1905 44.3492 55.5897 42.7884 59.5958C41.2783 63.4711 40.2504 67.8998 39.9585 74.3836C39.6679 80.8826 39.5918 82.9605 39.5918 99.5076C39.5918 116.055 39.6654 118.125 39.9598 124.624C40.258 131.11 41.2846 135.538 42.7897 139.412C44.3467 143.419 46.4279 146.818 49.8148 150.205C53.1992 153.594 56.5976 155.681 60.6012 157.237C64.4767 158.744 68.9042 159.771 75.3875 160.068C81.8848 160.363 83.9596 160.436 100.501 160.436C117.045 160.436 119.114 160.363 125.612 160.068C132.096 159.771 136.528 158.744 140.403 157.237C144.408 155.681 147.801 153.594 151.186 150.205C154.574 146.818 156.655 143.419 158.216 139.413C159.713 135.538 160.741 131.109 161.046 124.625C161.338 118.126 161.414 116.055 161.414 99.5076C161.414 82.9605 161.338 80.8839 161.046 74.3848C160.741 67.8985 159.713 63.4711 158.216 59.597C156.655 55.5897 154.574 52.1905 151.186 48.8039C147.797 45.4147 144.409 43.333 140.399 41.7781C136.516 40.2714 132.087 39.2445 125.603 38.9475C119.106 38.6517 117.037 38.5793 100.489 38.5793H100.508ZM95.0442 49.5591C96.666 49.5566 98.4756 49.5591 100.508 49.5591C116.772 49.5591 118.699 49.6175 125.122 49.9095C131.061 50.1811 134.284 51.1737 136.431 52.0077C139.274 53.112 141.3 54.4321 143.431 56.5646C145.563 58.6971 146.883 60.728 147.989 63.5713C148.823 65.7165 149.816 68.9406 150.087 74.8811C150.379 81.304 150.442 83.2334 150.442 99.4936C150.442 115.754 150.379 117.683 150.087 124.106C149.815 130.047 148.823 133.271 147.989 135.416C146.885 138.259 145.563 140.284 143.431 142.415C141.299 144.548 139.275 145.868 136.431 146.972C134.287 147.81 131.061 148.8 125.122 149.071C118.701 149.363 116.772 149.427 100.508 149.427C84.2438 149.427 82.3162 149.363 75.8951 149.071C69.9562 148.797 66.733 147.805 64.5846 146.971C61.7421 145.866 59.7117 144.546 57.5798 142.414C55.4479 140.281 54.1281 138.255 53.0215 135.411C52.1878 133.266 51.1942 130.042 50.9239 124.101C50.632 117.678 50.5737 115.749 50.5737 99.4784C50.5737 83.208 50.632 81.2888 50.9239 74.8659C51.1955 68.9254 52.1878 65.7013 53.0215 63.5536C54.1256 60.7103 55.4479 58.6793 57.5798 56.5468C59.7117 54.4143 61.7421 53.0942 64.5846 51.9874C66.7317 51.1496 69.9562 50.1595 75.8951 49.8866C81.5142 49.6327 83.6918 49.5566 95.0442 49.5439V49.5591ZM133.023 59.6757C128.987 59.6757 125.713 62.9468 125.713 66.9846C125.713 71.0211 128.987 74.296 133.023 74.296C137.058 74.296 140.332 71.0211 140.332 66.9846C140.332 62.9481 137.058 59.6732 133.023 59.6732V59.6757ZM100.508 68.2184C83.2337 68.2184 69.2278 82.2281 69.2278 99.5076C69.2278 116.787 83.2337 130.79 100.508 130.79C117.783 130.79 131.784 116.787 131.784 99.5076C131.784 82.2281 117.782 68.2184 100.507 68.2184H100.508ZM100.508 79.1982C111.721 79.1982 120.812 88.2904 120.812 99.5076C120.812 110.723 111.721 119.817 100.508 119.817C89.2944 119.817 80.2046 110.723 80.2046 99.5076C80.2046 88.2904 89.2944 79.1982 100.508 79.1982V79.1982Z" fill="white"/>
<defs>
<radialGradient id="paint0_radial_2295_17118" cx="0" cy="0" r="1" gradientUnits="userSpaceOnUse" gradientTransform="translate(61.8283 194.708) rotate(-90) scale(163.527 152.093)">
<stop stop-color="#FFDD55"/>
<stop offset="0.1" stop-color="#FFDD55"/>
<stop offset="0.5" stop-color="#FF543E"/>
<stop offset="1" stop-color="#C837AB"/>
</radialGradient>
<radialGradient id="paint1_radial_2295_17118" cx="0" cy="0" r="1" gradientUnits="userSpaceOnUse" gradientTransform="translate(-9.63837 28.8863) rotate(78.6806) scale(73.0973 301.31)">
<stop stop-color="#3771C8"/>
<stop offset="0.128" stop-color="#3771C8"/>
<stop offset="1" stop-color="#6600FF" stop-opacity="0"/>
</radialGradient>
</defs>
</svg>
