<svg width="209" height="75" viewBox="0 0 209 75" fill="none" xmlns="http://www.w3.org/2000/svg">
<path d="M96.2982 58.292C93.7605 58.292 91.3678 57.8398 89.1201 56.9356C86.9087 55.9952 84.9873 54.6749 83.3559 52.9749C81.7608 51.2749 80.5645 49.2674 79.7669 46.9525L86.6731 43.86C87.6881 46.0664 89.0839 47.8025 90.8603 49.0685C92.6729 50.3345 94.6668 50.9675 96.842 50.9675C98.0021 50.9675 98.999 50.7866 99.8328 50.4249C100.667 50.0632 101.319 49.5749 101.79 48.96C102.262 48.3089 102.497 47.5493 102.497 46.6813C102.497 45.7408 102.207 44.9451 101.627 44.294C101.047 43.6068 100.141 43.0642 98.9084 42.6663L90.969 40.0621C87.7425 39.0131 85.3136 37.5301 83.6822 35.6131C82.0508 33.6599 81.2351 31.3269 81.2351 28.6141C81.2351 26.2269 81.8152 24.129 82.9753 22.3204C84.1716 20.5119 85.8211 19.1013 87.9238 18.0885C90.0627 17.0757 92.5098 16.5693 95.265 16.5693C97.6939 16.5693 99.9416 16.9853 102.008 17.8172C104.074 18.6491 105.851 19.8247 107.337 21.3438C108.86 22.863 110.002 24.6896 110.763 26.8237L103.911 29.9162C103.15 28.0354 102.008 26.5705 100.485 25.5215C98.9628 24.4364 97.2226 23.8939 95.265 23.8939C94.1411 23.8939 93.1442 24.0747 92.2741 24.4364C91.404 24.7981 90.7334 25.3226 90.2621 26.0098C89.7908 26.6609 89.5552 27.4205 89.5552 28.2886C89.5552 29.229 89.8633 30.0609 90.4796 30.7843C91.0959 31.4716 92.0203 32.0141 93.2529 32.412L101.029 34.9078C104.292 35.9567 106.721 37.4216 108.316 39.3025C109.947 41.1833 110.763 43.4802 110.763 46.193C110.763 48.544 110.147 50.6419 108.914 52.4866C107.682 54.2951 105.978 55.7239 103.803 56.7728C101.664 57.7856 99.1621 58.292 96.2982 58.292Z" fill="white"/>
<path d="M130.473 57.9664C126.884 57.9664 124.093 57.0079 122.099 55.0909C120.141 53.1377 119.162 50.4249 119.162 46.9525V35.0705H114.16V28.0173H114.431C115.954 28.0173 119.162 28.0173 119.162 28.0173C119.162 28.0173 119.162 24.979 119.162 23.4598V21.2896H127.319V28.0173H134.28V35.0705H127.319V46.41C127.319 47.4227 127.501 48.2728 127.863 48.96C128.226 49.6111 128.788 50.0994 129.549 50.4249C130.31 50.7504 131.253 50.9132 132.377 50.9132C132.63 50.9132 132.92 50.8951 133.247 50.8589C133.573 50.8228 133.917 50.7866 134.28 50.7504V57.6409C133.736 57.7132 133.12 57.7856 132.431 57.8579C131.742 57.9303 131.09 57.9664 130.473 57.9664Z" fill="white"/>
<path d="M148.25 58.292C146.111 58.292 144.262 57.9484 142.703 57.2611C141.144 56.5739 139.948 55.5973 139.114 54.3313C138.28 53.0292 137.863 51.4919 137.863 49.7196C137.863 48.0557 138.244 46.5908 139.005 45.3249C139.767 44.0227 140.927 42.9376 142.486 42.0695C144.081 41.2014 146.057 40.5865 148.413 40.2248L157.494 38.7599V44.728L149.881 46.0844C148.721 46.3015 147.833 46.6813 147.217 47.2238C146.6 47.7302 146.292 48.4717 146.292 49.4483C146.292 50.3526 146.637 51.0579 147.325 51.5643C148.014 52.0707 148.866 52.3238 149.881 52.3238C151.223 52.3238 152.401 52.0345 153.416 51.4558C154.431 50.877 155.21 50.0994 155.754 49.1228C156.334 48.11 156.624 47.0068 156.624 45.8132V38.1089C156.624 36.9876 156.171 36.0471 155.265 35.2876C154.395 34.528 153.198 34.1482 151.676 34.1482C150.226 34.1482 148.939 34.5461 147.815 35.3418C146.727 36.1376 145.93 37.1865 145.422 38.4886L138.897 35.3961C139.477 33.7322 140.401 32.3035 141.67 31.1099C142.939 29.9162 144.461 28.9939 146.238 28.3428C148.014 27.6918 149.954 27.3662 152.056 27.3662C154.558 27.3662 156.769 27.8184 158.691 28.7226C160.612 29.6269 162.098 30.8928 163.15 32.5205C164.237 34.112 164.781 35.9748 164.781 38.1089V57.6409H157.168V52.8664L159.017 52.5409C158.147 53.843 157.186 54.9281 156.135 55.7962C155.083 56.6281 153.905 57.243 152.6 57.6409C151.295 58.075 149.845 58.292 148.25 58.292Z" fill="white"/>
<path d="M170.763 57.6409V28.0173H178.376V33.8769L177.941 32.5748C178.63 30.8024 179.736 29.5003 181.258 28.6684C182.817 27.8003 184.63 27.3662 186.696 27.3662C188.944 27.3662 190.902 27.8364 192.569 28.7769C194.273 29.7173 195.596 31.0375 196.539 32.7375C197.482 34.4014 197.953 36.3546 197.953 38.5972V57.6409H189.796V40.3333C189.796 39.1759 189.56 38.1812 189.089 37.3493C188.654 36.5174 188.02 35.8663 187.186 35.3961C186.388 34.9259 185.446 34.6907 184.358 34.6907C183.307 34.6907 182.364 34.9259 181.53 35.3961C180.696 35.8663 180.044 36.5174 179.573 37.3493C179.138 38.1812 178.92 39.1759 178.92 40.3333V57.6409H170.763Z" fill="white"/>
<path fill-rule="evenodd" clip-rule="evenodd" d="M9.33331 36.9963C9.33331 21.4461 21.9392 8.8335 37.4894 8.8335C53.0395 8.8335 65.6454 21.4461 65.6454 36.9963C65.6454 52.5464 53.0395 65.1591 37.4894 65.1591C21.9392 65.1591 9.33331 52.5464 9.33331 36.9963ZM27.4755 32.9595C27.196 30.751 27.8203 28.5688 29.2323 26.8164C30.7035 24.9896 32.8104 23.9209 35.0157 23.6735V21.7513C35.0157 20.751 35.8517 19.9403 36.8831 19.9403C37.9145 19.9403 38.7505 20.751 38.7505 21.7513V24.0519C39.6449 24.344 40.5039 24.785 41.289 25.3798L44.4898 27.8048C45.3027 28.4208 45.4466 29.5579 44.8114 30.3463C44.1763 31.1346 43.0031 31.2741 42.1908 30.6589L38.9901 28.2339C36.8804 26.6361 33.8235 27 32.1753 29.0453C31.3766 30.0363 31.0244 31.2695 31.1825 32.5179C31.3406 33.7662 31.99 34.8804 33.0119 35.6542L37.5732 39.1104C38.3861 39.7264 38.53 40.8642 37.8955 41.6525C37.5271 42.1099 36.9781 42.3481 36.4231 42.3481C36.0214 42.3481 35.6163 42.2231 35.2749 41.9644L30.7136 38.5083C28.9046 37.1382 27.7551 35.1679 27.4755 32.9595ZM39.341 32.5033L43.7737 35.9591L43.7743 35.9605C47.4007 38.7879 48.0455 44.0329 45.2123 47.652C43.7823 49.4786 41.7357 50.5473 39.5922 50.794V52.7161C39.5922 53.7162 38.7799 54.5269 37.7778 54.5269C36.7756 54.5269 35.9633 53.7162 35.9633 52.7161V50.415C35.0943 50.1228 34.2589 49.682 33.4967 49.0871L30.3873 46.6624C29.5975 46.0465 29.457 44.9088 30.0742 44.1205C30.6913 43.3322 31.8313 43.1927 32.6211 43.8086L35.7312 46.2333C36.5916 46.9038 37.6149 47.2289 38.6303 47.2289C40.034 47.2296 41.4232 46.6084 42.3528 45.4213C43.1282 44.4304 43.4711 43.1973 43.3174 41.949C43.1638 40.7008 42.5322 39.5868 41.5392 38.8129L37.1072 35.3571C36.3173 34.7412 36.1776 33.6035 36.7947 32.8152C37.4112 32.0269 38.5511 31.8874 39.341 32.5033Z" fill="white"/>
</svg>
