<svg width="200" height="200" viewBox="0 0 200 200" fill="none" xmlns="http://www.w3.org/2000/svg">
<path d="M190.992 41.8081C184.394 44.8718 177.305 46.9604 169.797 47.9561C177.343 43.202 183.037 35.7214 185.535 26.8554C178.478 31.2535 170.616 34.4833 162.17 36.2298C155.138 28.8835 145.307 24.3376 134.618 24.4175C114.047 24.5713 97.917 41.6819 98.5573 62.621C98.6482 65.5955 99.0444 68.4895 99.783 71.2634C68.7825 69.9293 40.8669 55.0271 21.8236 32.1899C18.8033 37.8106 17.1575 44.3605 17.3693 51.288C17.7714 64.4386 24.7403 76.0133 34.9456 82.7486C28.7888 82.6381 22.9686 80.9591 17.8826 78.1394L17.897 78.609C18.4594 97.0041 31.7698 112.211 48.9099 115.567C45.8217 116.452 42.5293 116.946 39.1457 116.971C36.7617 116.989 34.4091 116.772 32.1261 116.319C37.3163 131.352 51.4166 142.208 67.7292 142.399C55.3132 152.67 39.4264 158.857 21.9698 158.987C18.9707 159.01 16.004 158.836 13.071 158.506C29.8221 169.264 49.5848 175.38 70.5788 175.223C139.136 174.71 174.819 116.622 173.286 66.4859C173.236 64.8421 173.147 63.1986 173.022 61.5945C180.125 56.1782 186.227 49.4775 190.992 41.8081Z" fill="#00A4FF"/>
</svg>
